<?xml version="1.0" standalone="no"?>
<!DOCTYPE svg PUBLIC "-//W3C//DTD SVG 20010904//EN"
 "http://www.w3.org/TR/2001/REC-SVG-20010904/DTD/svg10.dtd">
<svg version="1.0" xmlns="http://www.w3.org/2000/svg"
 width="400.000000pt" height="400.000000pt" viewBox="0 0 400.000000 400.000000"
 preserveAspectRatio="xMidYMid meet">
<metadata>
Created by potrace 1.11, written by Peter Selinger 2001-2013
</metadata>
<g transform="translate(0.000000,400.000000) scale(0.100000,-0.100000)"
fill="#000000" stroke="none">
<path d="M280 1995 l0 -1245 250 0 250 0 0 603 0 602 258 -520 c142 -286 276
-557 297 -602 l40 -83 253 0 252 0 0 1245 0 1245 -250 0 -250 0 0 -627 c0
-346 -4 -623 -9 -617 -7 8 -106 216 -507 1064 l-83 175 -250 3 -251 2 0 -1245z"/>
<path d="M2060 1995 l0 -1235 503 0 c579 0 584 1 747 81 89 45 117 65 191 138
74 74 93 101 137 191 66 134 87 235 79 370 -11 159 -53 278 -141 397 l-43 59
43 58 c87 114 130 237 141 396 8 135 -13 236 -79 370 -44 90 -63 117 -137 191
-74 73 -102 93 -191 138 -163 80 -168 81 -747 81 l-503 0 0 -1235z m955 735
c71 -12 126 -47 170 -109 28 -40 30 -49 30 -131 0 -82 -2 -91 -30 -132 -43
-60 -119 -103 -196 -112 -34 -3 -145 -6 -245 -6 l-184 0 0 250 0 250 198 0
c108 0 224 -5 257 -10z m70 -1007 c89 -48 135 -123 135 -222 0 -120 -87 -222
-207 -241 -32 -6 -147 -10 -255 -10 l-198 0 0 251 0 250 243 -3 c226 -3 245
-4 282 -25z"/>
</g>
</svg>
